<svg width="259" height="274" viewBox="0 0 259 274" fill="none" xmlns="http://www.w3.org/2000/svg">
<path fill-rule="evenodd" clip-rule="evenodd" d="M91.8843 47.6354C100.416 44.8645 106.485 57.8997 96.0969 59.2634C81.9339 61.1229 82.7647 50.5976 91.8843 47.6354ZM73.4155 52.0898C73.9456 58.1667 84.5962 68.1764 97.3388 66.7874C106.959 65.7386 118.751 56.9482 113.797 46.4761L121.427 48.1179C120.843 47.3012 121.204 47.5512 120.282 46.9593L116.097 45.3575C109.494 43.3999 102.865 42.1309 95.8939 43.0023C87.7449 44.0205 78.5606 48.4404 73.4155 52.0898ZM216.207 251.055C217.149 252.059 218.514 253.974 218.597 255.941C218.411 255.79 218.301 255.648 218.102 255.461C217.911 255.281 217.849 255.176 217.672 255.022C216.029 253.589 211.675 251.278 209.689 250.102C207.656 248.897 204.539 247.344 203.534 245.205C203.238 244.575 202.696 243.274 202.564 242.545C202.901 242.712 202.837 242.719 203.121 242.994C203.29 243.158 203.424 243.235 203.608 243.383C204.66 244.229 205.894 244.741 207.159 245.356C210.077 246.772 214.001 248.707 216.207 251.055ZM180.66 198.819C180.602 198.649 180.581 198.539 180.531 198.375C179.954 196.468 178.9 194.583 177.77 192.988L175.729 190.376C174.377 188.645 172.669 187.205 170.993 185.799C170.145 185.088 169.29 184.474 168.364 183.773C163.397 180.014 156.432 176.506 150.786 173.611C146.683 171.508 142.391 169.617 138.542 167.329C134.215 164.76 130.963 162.617 129.647 157.702C129.55 157.341 129.288 157.646 129.3 157.638C128.178 160.443 126.642 163.714 125.214 166.374C126.326 168.617 127.99 170.769 130.427 172.726C139.5 180.011 152.818 185.901 163.078 192.065C166.794 194.297 170.475 196.789 173.466 199.91C174.74 201.24 175.928 202.639 176.903 204.231C180.049 209.364 179.524 210.961 179.219 216.907C178.739 216.709 178.211 216.342 177.759 216.079C168.652 210.797 151.639 204.188 146.091 196.733C143.365 193.071 142.16 189.062 141.725 183.423C141.348 184.266 141.011 185.503 140.722 186.437C139.682 189.792 138.859 193.176 139.247 196.79C139.995 203.75 144.368 208.324 149.7 211.977C156.533 216.658 166.851 221.945 174.276 225.867C177.823 227.74 181.181 229.858 184.151 231.995C187.219 234.202 188.14 235.179 190.505 237.666C191.064 238.253 191.716 239.153 192.233 239.918C195.561 244.853 195.514 246.725 195.13 252.668C193.95 252.179 192.181 250.063 191.599 249.085C190.054 246.493 190.481 245.12 189.899 243.716C189.292 246.077 188.539 248.297 189.058 250.948C189.505 253.235 190.433 254.714 192.105 256.142C198.736 261.808 213.028 264.973 217.617 272.046C217.868 272.433 218.072 272.775 218.236 273.088C218.451 272.843 220.08 269.465 220.181 269.109C220.377 268.423 220.567 267.744 220.743 267.029C222.547 259.691 219.689 258.133 219.824 257.286C219.886 256.894 220.055 256.359 220.142 255.943C220.893 252.343 220.133 250.31 220.271 249.684C220.675 247.848 221.249 246.126 221.611 244.143C222.42 239.71 222.24 236.095 220.182 232.725C218.98 230.757 217.194 228.469 215.375 227.059C211.83 224.314 204.58 220.583 200.36 218.018C199.584 217.546 198.924 217.129 198.229 216.661C194.618 214.229 193.843 213.059 192.293 208.824C191.992 208.002 191.86 207.011 191.552 206.23C190.965 207.38 190.008 212.025 189.844 213.618C189.529 216.666 190.035 218.902 191.354 221.107C192.386 222.83 194.277 224.625 195.901 225.68C198.533 227.391 202.003 228.711 204.849 230.309C210.021 233.213 214.339 235.088 217.474 240.476C218.743 242.658 219.156 244.849 219.204 247.833L218.683 247.22C216.354 243.939 213.013 242.566 209.571 240.523C207.779 239.459 206.031 238.422 204.236 237.447C204.128 237.586 204.002 237.802 203.868 238.06C203.44 238.881 202.934 240.127 202.688 240.671C202.435 241.231 202.123 241.904 202.031 242.251C201.915 242.691 201.832 243.116 201.686 243.71C201.133 245.969 200.825 248.126 201.788 250.247C203.002 252.919 205.524 254.13 207.97 255.316C208.84 255.738 209.594 256.16 210.457 256.607C214.593 258.745 219.017 261.241 219.523 266.369C219.605 267.204 219.809 269.157 219.557 269.834C218.994 268.876 219.147 268.187 217.879 266.353C214.579 261.578 207.319 258.421 202.28 256.248C200.589 255.52 196.726 253.983 195.444 252.904C197.156 243.824 199.001 237.916 194.114 230.178C193.375 229.007 191.327 226.273 190.208 225.357C189.834 225.05 189.711 224.811 189.361 224.46C188.809 223.907 188.168 223.425 187.553 222.87C185.334 220.871 179.6 217.185 179.467 217.059C179.54 216.264 179.874 215.118 180.041 214.31C180.621 211.496 181.161 208.703 181.328 205.811C181.381 204.883 181.255 203.288 181.363 202.533C181.455 201.89 181.874 200.725 182.066 200.038C183.546 194.768 185.045 188.763 183.084 183.505C182.253 181.277 179.374 177.369 177.714 175.881C173.522 172.123 163.086 167.044 157.579 163.423C154.559 161.436 152.937 160.112 151.506 156.501C151.187 155.696 150.893 154.904 150.609 154.099C150.382 153.458 150.211 152.109 149.913 151.64C149.61 152.182 148.976 154.927 148.788 155.704C147.705 160.176 147.373 164.633 149.836 168.45C152.873 173.156 157.137 174.575 161.859 176.993C165.709 178.965 171.694 182.014 174.748 184.758C176.285 186.138 178.1 188.23 179.255 190.535C180.535 193.086 180.902 196.033 180.874 199.265L180.66 198.819Z" fill="white"/>
<path fill-rule="evenodd" clip-rule="evenodd" d="M192.009 205.028C192.189 204.718 194.489 196.363 194.499 195.956C190.084 194.964 189.857 192.142 189.726 188.579C188.589 191.837 185.647 199.568 188.474 202.554C189.089 203.204 191.142 204.741 192.009 205.028ZM159.599 160.111L162.116 150.996C160.392 150.769 158.99 149.711 158.315 148.726C157.412 147.41 157.376 145.514 157.283 143.693L156.891 144.799C155.778 148.286 153.318 154.803 156.129 157.698C156.958 158.552 158.586 159.616 159.599 160.111ZM125.214 166.374L129.647 157.702C135.782 148.432 167.597 110.459 146.588 103.618C154.558 120.661 119.164 151.096 125.214 166.374Z" fill="white"/>
<path fill-rule="evenodd" clip-rule="evenodd" d="M105.882 124.023C111.005 123.953 114.966 123.958 117.297 129.551C117.877 130.943 117.969 132.421 118.712 135.725C119.132 137.593 119.585 139.431 120.107 141.127C120.668 142.951 121.491 144.574 123.314 146.397C124.359 147.441 125.47 147.998 128.179 148.812C129.199 149.119 130.286 149.354 131.775 149.561C127.686 149.516 122.368 150.15 118.898 147.632C118.151 147.09 117.453 146.311 116.373 144.873C115.047 143.108 114.667 141.886 113.654 138.161C113.038 135.893 112.501 133.672 111.755 131.145C111.229 129.361 110.601 127.762 109.858 126.903C109.353 126.318 108.593 125.746 107.168 124.754L105.882 124.023ZM128.069 143.713C131.601 126.113 154.009 101.868 138.372 98.5241C145.153 109.796 122.753 133.529 128.069 143.713ZM104.332 125.215C86.7049 152.93 101.908 183.812 121.254 206.518C142.211 231.115 171.423 251.18 187.449 269.656C163.914 224.022 123.766 216.623 106.299 160.423C102.547 148.351 100.718 135.871 104.332 125.215Z" fill="white"/>
<path fill-rule="evenodd" clip-rule="evenodd" d="M55.8617 51.5475C60.0462 43.6298 71.3241 36.0913 81.5444 31.9476C104.721 22.5505 132.452 22.2005 153.563 36.6022C162.417 42.642 169.296 50.5494 175.409 59.9086C183.241 71.8994 184.79 77.6432 190.37 90.1145C198.888 109.152 206.022 116.695 218.187 130.216C225.717 138.585 245.333 160.342 253.911 161.892C257.657 151.701 258.86 130.952 257.831 119.167C256.661 105.759 253.522 92.511 248.931 81.1885C235.647 48.4282 211.054 24.0008 178.975 10.1431C168.277 5.52226 154.481 2.08864 141.42 0.856442C112.235 -1.89626 86.145 5.45932 65.2217 17.3483C30.1287 37.2875 -3.57007 80.0269 0.894529 140.271C3.61523 176.977 24.159 211.134 50.6913 231.193C57.7354 236.518 71.9284 245.996 80.7462 248.377C80.6886 242.097 77.3412 233.42 75.9491 227.253C70.9309 205.025 71.3003 181.348 76.3496 159.505C77.9195 152.715 79.7742 146.363 82.1031 140.088C84.4244 133.834 87.7761 127.444 86.1167 119.595C83.4416 106.951 70.538 93.2026 68.3253 87.1849L73.3168 82.6862C78.949 77.4812 88.1174 80.9896 97.7549 81.5413C97.6313 80.0074 95.6332 76.3254 94.8173 75.0135C90.7122 68.4146 82.9053 67.9925 76.6226 64.598C71.4616 61.8101 70.8002 59.5855 67.9163 54.3306C65.6298 50.1646 60.4932 47.4191 55.8617 51.5475ZM42.5286 82.4142C46.0543 81.9768 52.7923 81.537 56.8663 82.0336C60.6604 82.4963 61.9746 83.6822 64.9779 84.6221C68.1422 82.5628 71.4746 79.2734 74.8475 78.0486C78.3106 76.7911 81.6827 77.4301 87.331 78.6376C85.9732 76.4975 82.373 74.3288 78.7435 73.4943C74.773 72.5807 72.4579 71.7064 68.0906 69.7042C64.4934 68.3385 59.4619 68.9142 55.9509 67.017C51.9731 64.8675 51.1618 61.2729 49.4656 58.6664C45.6121 59.2597 37.8614 70.4115 36.0429 76.275C32.9254 86.3238 40.2635 93.5949 44.5069 97.4951C44.0117 95.1674 40.5506 88.5861 42.5286 82.4142Z" fill="white"/>
</svg>
