<svg width="353" height="56" viewBox="0 0 353 56" fill="none" xmlns="http://www.w3.org/2000/svg">
<path d="M312.335 55.0197H296.458L314.345 0.8284H334.456L352.343 55.0197H336.467L324.612 15.7522H324.189L312.335 55.0197ZM309.371 33.6396H339.218V44.6472H309.371V33.6396Z" fill="white"/>
<path d="M262.999 17.7632C262.858 15.9992 262.196 14.6232 261.014 13.6354C259.85 12.6475 258.077 12.1536 255.696 12.1536C254.178 12.1536 252.935 12.3388 251.965 12.7092C251.012 13.062 250.306 13.5472 249.848 14.1646C249.389 14.782 249.151 15.4876 249.133 16.2814C249.098 16.9341 249.213 17.5251 249.477 18.0543C249.76 18.5659 250.201 19.0333 250.8 19.4567C251.4 19.8624 252.167 20.2329 253.102 20.568C254.037 20.9032 255.149 21.2031 256.436 21.4677L260.882 22.4203C263.881 23.0553 266.447 23.8933 268.582 24.934C270.716 25.9748 272.463 27.2008 273.821 28.6121C275.179 30.0057 276.176 31.5757 276.811 33.3221C277.464 35.0685 277.799 36.9736 277.817 39.0375C277.799 42.6009 276.908 45.6174 275.144 48.0871C273.38 50.5567 270.857 52.4354 267.576 53.7232C264.313 55.0109 260.388 55.6548 255.801 55.6548C251.091 55.6548 246.981 54.958 243.471 53.5644C239.978 52.1708 237.261 50.0275 235.321 47.1345C233.398 44.2238 232.428 40.5017 232.41 35.9681H246.381C246.47 37.6263 246.884 39.0199 247.625 40.1489C248.366 41.2779 249.407 42.1334 250.747 42.7156C252.106 43.2977 253.72 43.5888 255.59 43.5888C257.16 43.5888 258.474 43.3947 259.532 43.0066C260.591 42.6185 261.393 42.0805 261.94 41.3925C262.487 40.7046 262.769 39.9196 262.787 39.0375C262.769 38.2084 262.496 37.4852 261.967 36.8678C261.455 36.2327 260.608 35.6682 259.426 35.1743C258.245 34.6627 256.648 34.1864 254.637 33.7454L249.239 32.5812C244.441 31.5404 240.657 29.8028 237.888 27.3684C235.136 24.9164 233.769 21.5735 233.786 17.3398C233.769 13.9 234.686 10.8923 236.538 8.31678C238.408 5.72364 240.992 3.70381 244.291 2.2573C247.607 0.810782 251.409 0.0875244 255.696 0.0875244C260.07 0.0875244 263.854 0.819602 267.047 2.28376C270.24 3.74791 272.701 5.81184 274.43 8.47554C276.176 11.1216 277.058 14.2175 277.076 17.7632H262.999Z" fill="white"/>
<path d="M173.714 55.0197H157.838L175.725 0.8284H195.835L213.722 55.0197H197.846L185.992 15.7522H185.568L173.714 55.0197ZM170.75 33.6396H200.598V44.6472H170.75V33.6396Z" fill="white"/>
<path d="M95.0201 55.0197V0.8284H118.411C122.433 0.8284 125.953 1.56048 128.969 3.02463C131.986 4.48879 134.332 6.59681 136.008 9.34872C137.683 12.1006 138.521 15.3994 138.521 19.245C138.521 23.1259 137.657 26.3982 135.928 29.0619C134.217 31.7256 131.809 33.7366 128.704 35.0949C125.617 36.4532 122.01 37.1324 117.882 37.1324H103.911V25.7014H114.918C116.647 25.7014 118.12 25.4897 119.337 25.0663C120.572 24.6253 121.516 23.9285 122.169 22.9759C122.839 22.0233 123.174 20.7797 123.174 19.245C123.174 17.6926 122.839 16.4313 122.169 15.4611C121.516 14.4733 120.572 13.75 119.337 13.2913C118.12 12.8151 116.647 12.5769 114.918 12.5769H109.732V55.0197H95.0201ZM126.773 30.1468L140.321 55.0197H124.338L111.108 30.1468H126.773Z" fill="white"/>
<path d="M73.2033 0.8284V55.0197H58.4912V0.8284H73.2033Z" fill="white"/>
<path d="M0.132324 55.0197V0.8284H38.2356V12.6828H14.8444V21.9969H35.9071V33.8512H14.8444V55.0197H0.132324Z" fill="white"/>
</svg>
